<svg width="14" height="14" viewBox="0 0 14 14" fill="none" xmlns="http://www.w3.org/2000/svg">
<path fill-rule="evenodd" clip-rule="evenodd" d="M3.79998 0.0666504C3.94143 0.0666504 4.07709 0.122841 4.17711 0.22286C4.27713 0.322879 4.33332 0.458535 4.33332 0.599984V1.13332H9.66665V0.599984C9.66665 0.458535 9.72284 0.322879 9.82286 0.22286C9.92288 0.122841 10.0585 0.0666504 10.2 0.0666504C10.3414 0.0666504 10.4771 0.122841 10.5771 0.22286C10.6771 0.322879 10.7333 0.458535 10.7333 0.599984V1.13332H12.3333C12.7577 1.13332 13.1646 1.30189 13.4647 1.60195C13.7647 1.902 13.9333 2.30897 13.9333 2.73332V12.3333C13.9333 12.7577 13.7647 13.1646 13.4647 13.4647C13.1646 13.7647 12.7577 13.9333 12.3333 13.9333H1.66665C1.2423 13.9333 0.835338 13.7647 0.53528 13.4647C0.235221 13.1646 0.0666504 12.7577 0.0666504 12.3333V2.73332C0.0666504 2.30897 0.235221 1.902 0.53528 1.60195C0.835338 1.30189 1.2423 1.13332 1.66665 1.13332H3.26665V0.599984C3.26665 0.458535 3.32284 0.322879 3.42286 0.22286C3.52288 0.122841 3.65854 0.0666504 3.79998 0.0666504ZM9.66665 2.19998V2.73332C9.66665 2.87477 9.72284 3.01042 9.82286 3.11044C9.92288 3.21046 10.0585 3.26665 10.2 3.26665C10.3414 3.26665 10.4771 3.21046 10.5771 3.11044C10.6771 3.01042 10.7333 2.87477 10.7333 2.73332V2.19998H12.3333C12.4748 2.19998 12.6104 2.25617 12.7104 2.35619C12.8105 2.45621 12.8667 2.59187 12.8667 2.73332V4.33332H1.13332V2.73332C1.13332 2.59187 1.18951 2.45621 1.28953 2.35619C1.38955 2.25617 1.5252 2.19998 1.66665 2.19998H3.26665V2.73332C3.26665 2.87477 3.32284 3.01042 3.42286 3.11044C3.52288 3.21046 3.65854 3.26665 3.79998 3.26665C3.94143 3.26665 4.07709 3.21046 4.17711 3.11044C4.27713 3.01042 4.33332 2.87477 4.33332 2.73332V2.19998H9.66665ZM1.13332 5.39998V12.3333C1.13332 12.4748 1.18951 12.6104 1.28953 12.7104C1.38955 12.8105 1.5252 12.8667 1.66665 12.8667H12.3333C12.4748 12.8667 12.6104 12.8105 12.7104 12.7104C12.8105 12.6104 12.8667 12.4748 12.8667 12.3333V5.39998H1.13332ZM6.46665 6.99998C6.46665 6.85854 6.52284 6.72288 6.62286 6.62286C6.72288 6.52284 6.85854 6.46665 6.99998 6.46665C7.14143 6.46665 7.27709 6.52284 7.37711 6.62286C7.47713 6.72288 7.53332 6.85854 7.53332 6.99998C7.53332 7.14143 7.47713 7.27709 7.37711 7.37711C7.27709 7.47713 7.14143 7.53332 6.99998 7.53332C6.85854 7.53332 6.72288 7.47713 6.62286 7.37711C6.52284 7.27709 6.46665 7.14143 6.46665 6.99998ZM9.13332 6.46665C8.99187 6.46665 8.85621 6.52284 8.75619 6.62286C8.65617 6.72288 8.59998 6.85854 8.59998 6.99998C8.59998 7.14143 8.65617 7.27709 8.75619 7.37711C8.85621 7.47713 8.99187 7.53332 9.13332 7.53332C9.27477 7.53332 9.41042 7.47713 9.51044 7.37711C9.61046 7.27709 9.66665 7.14143 9.66665 6.99998C9.66665 6.85854 9.61046 6.72288 9.51044 6.62286C9.41042 6.52284 9.27477 6.46665 9.13332 6.46665ZM10.7333 6.99998C10.7333 6.85854 10.7895 6.72288 10.8895 6.62286C10.9895 6.52284 11.1252 6.46665 11.2667 6.46665C11.4081 6.46665 11.5438 6.52284 11.6438 6.62286C11.7438 6.72288 11.8 6.85854 11.8 6.99998C11.8 7.14143 11.7438 7.27709 11.6438 7.37711C11.5438 7.47713 11.4081 7.53332 11.2667 7.53332C11.1252 7.53332 10.9895 7.47713 10.8895 7.37711C10.7895 7.27709 10.7333 7.14143 10.7333 6.99998ZM11.2667 8.59998C11.1252 8.59998 10.9895 8.65617 10.8895 8.75619C10.7895 8.85621 10.7333 8.99187 10.7333 9.13332C10.7333 9.27477 10.7895 9.41042 10.8895 9.51044C10.9895 9.61046 11.1252 9.66665 11.2667 9.66665C11.4081 9.66665 11.5438 9.61046 11.6438 9.51044C11.7438 9.41042 11.8 9.27477 11.8 9.13332C11.8 8.99187 11.7438 8.85621 11.6438 8.75619C11.5438 8.65617 11.4081 8.59998 11.2667 8.59998ZM8.59998 9.13332C8.59998 8.99187 8.65617 8.85621 8.75619 8.75619C8.85621 8.65617 8.99187 8.59998 9.13332 8.59998C9.27477 8.59998 9.41042 8.65617 9.51044 8.75619C9.61046 8.85621 9.66665 8.99187 9.66665 9.13332C9.66665 9.27477 9.61046 9.41042 9.51044 9.51044C9.41042 9.61046 9.27477 9.66665 9.13332 9.66665C8.99187 9.66665 8.85621 9.61046 8.75619 9.51044C8.65617 9.41042 8.59998 9.27477 8.59998 9.13332ZM6.99998 8.59998C6.85854 8.59998 6.72288 8.65617 6.62286 8.75619C6.52284 8.85621 6.46665 8.99187 6.46665 9.13332C6.46665 9.27477 6.52284 9.41042 6.62286 9.51044C6.72288 9.61046 6.85854 9.66665 6.99998 9.66665C7.14143 9.66665 7.27709 9.61046 7.37711 9.51044C7.47713 9.41042 7.53332 9.27477 7.53332 9.13332C7.53332 8.99187 7.47713 8.85621 7.37711 8.75619C7.27709 8.65617 7.14143 8.59998 6.99998 8.59998ZM4.33332 9.13332C4.33332 8.99187 4.38951 8.85621 4.48953 8.75619C4.58955 8.65617 4.7252 8.59998 4.86665 8.59998C5.0081 8.59998 5.14375 8.65617 5.24377 8.75619C5.34379 8.85621 5.39998 8.99187 5.39998 9.13332C5.39998 9.27477 5.34379 9.41042 5.24377 9.51044C5.14375 9.61046 5.0081 9.66665 4.86665 9.66665C4.7252 9.66665 4.58955 9.61046 4.48953 9.51044C4.38951 9.41042 4.33332 9.27477 4.33332 9.13332ZM2.73332 8.59998C2.59187 8.59998 2.45621 8.65617 2.35619 8.75619C2.25617 8.85621 2.19998 8.99187 2.19998 9.13332C2.19998 9.27477 2.25617 9.41042 2.35619 9.51044C2.45621 9.61046 2.59187 9.66665 2.73332 9.66665C2.87477 9.66665 3.01042 9.61046 3.11044 9.51044C3.21046 9.41042 3.26665 9.27477 3.26665 9.13332C3.26665 8.99187 3.21046 8.85621 3.11044 8.75619C3.01042 8.65617 2.87477 8.59998 2.73332 8.59998ZM2.19998 11.2667C2.19998 11.1252 2.25617 10.9895 2.35619 10.8895C2.45621 10.7895 2.59187 10.7333 2.73332 10.7333C2.87477 10.7333 3.01042 10.7895 3.11044 10.8895C3.21046 10.9895 3.26665 11.1252 3.26665 11.2667C3.26665 11.4081 3.21046 11.5438 3.11044 11.6438C3.01042 11.7438 2.87477 11.8 2.73332 11.8C2.59187 11.8 2.45621 11.7438 2.35619 11.6438C2.25617 11.5438 2.19998 11.4081 2.19998 11.2667ZM4.86665 10.7333C4.7252 10.7333 4.58955 10.7895 4.48953 10.8895C4.38951 10.9895 4.33332 11.1252 4.33332 11.2667C4.33332 11.4081 4.38951 11.5438 4.48953 11.6438C4.58955 11.7438 4.7252 11.8 4.86665 11.8C5.0081 11.8 5.14375 11.7438 5.24377 11.6438C5.34379 11.5438 5.39998 11.4081 5.39998 11.2667C5.39998 11.1252 5.34379 10.9895 5.24377 10.8895C5.14375 10.7895 5.0081 10.7333 4.86665 10.7333ZM6.46665 11.2667C6.46665 11.1252 6.52284 10.9895 6.62286 10.8895C6.72288 10.7895 6.85854 10.7333 6.99998 10.7333C7.14143 10.7333 7.27709 10.7895 7.37711 10.8895C7.47713 10.9895 7.53332 11.1252 7.53332 11.2667C7.53332 11.4081 7.47713 11.5438 7.37711 11.6438C7.27709 11.7438 7.14143 11.8 6.99998 11.8C6.85854 11.8 6.72288 11.7438 6.62286 11.6438C6.52284 11.5438 6.46665 11.4081 6.46665 11.2667ZM9.13332 10.7333C8.99187 10.7333 8.85621 10.7895 8.75619 10.8895C8.65617 10.9895 8.59998 11.1252 8.59998 11.2667C8.59998 11.4081 8.65617 11.5438 8.75619 11.6438C8.85621 11.7438 8.99187 11.8 9.13332 11.8C9.27477 11.8 9.41042 11.7438 9.51044 11.6438C9.61046 11.5438 9.66665 11.4081 9.66665 11.2667C9.66665 11.1252 9.61046 10.9895 9.51044 10.8895C9.41042 10.7895 9.27477 10.7333 9.13332 10.7333Z" fill="#4C4C4C"/>
</svg>
