<svg width="80" height="80" viewBox="0 0 80 80" fill="none" xmlns="http://www.w3.org/2000/svg">
<g id="Group">
<path id="Vector" d="M38.2506 0.212349C37.8102 0.353043 37.2288 0.618797 36.9294 0.790749C36.6475 0.97834 33.7409 3.43262 30.4996 6.24645L24.5983 11.3739H18.0452C11.8797 11.3739 11.4217 11.3895 10.5233 11.6865C9.25496 12.1086 8.0747 13.0622 7.47576 14.1564L6.98252 15.0475L6.92967 20.9253L6.87682 26.803L3.9526 29.3667C1.6097 31.4302 0.940301 32.118 0.535138 32.8684L0.0242797 33.8063V41.3411V48.8759L0.411827 49.2042C1.06361 49.7357 1.99725 49.595 2.40241 48.8759C2.63142 48.5164 2.66665 47.2502 2.66665 41.2161V34.0095L16.8474 46.4686C24.6512 53.3312 31.0281 58.9745 31.0281 59.037C31.0281 59.0839 24.6688 62.226 16.8826 66.0247L2.75473 72.9185L2.66665 62.9294L2.57857 52.9247L2.15579 52.6277C1.66255 52.2838 0.940301 52.2369 0.447059 52.5495C0.129975 52.7684 0.112359 53.1123 0.0242797 63.9299C-0.0285677 71.3084 0.00666394 75.3728 0.112359 75.9512C0.447059 77.5301 1.66255 78.8901 3.35367 79.5936L4.16399 79.9218L29.4955 79.9687L54.827 80L55.2498 79.6248C55.8135 79.1246 55.8135 78.5306 55.2498 78.046L54.827 77.6551H29.9359C6.04888 77.6551 5.00955 77.6395 4.32253 77.3581C3.60029 77.0611 2.93089 76.4046 2.80758 75.8887C2.77234 75.6542 6.18981 73.919 20.899 66.7437C38.6733 58.0521 39.0609 57.8802 40.0121 57.8802C40.9458 57.8802 41.2629 58.0209 49.6127 62.0853C77.5338 75.7167 77.2696 75.5917 77.2167 75.8731C77.0934 76.4046 76.424 77.0611 75.7017 77.3581C75.0323 77.6239 74.4158 77.6551 67.3871 77.6551C59.9708 77.6551 59.7771 77.6551 59.319 77.9834C58.6849 78.4211 58.6849 79.234 59.319 79.6717C59.7771 80 59.9708 80 67.4928 80C76.0012 80 76.3359 79.9687 77.7452 79.0152C78.626 78.4211 79.5596 77.2643 79.8238 76.4358C79.9472 76.045 80 68.8697 80 54.8319V33.8063L79.5068 32.8684C79.1016 32.1024 78.4674 31.4615 76.0717 29.3667L73.1298 26.7874V25.271C73.1298 24.0361 73.077 23.6922 72.8128 23.3952C72.3371 22.8793 71.4387 22.9262 70.8926 23.4733L70.4875 23.8954V30.2578V36.6202L58.5087 47.2502L46.53 57.8802L45.4202 57.3643C41.4038 55.4572 41.6328 55.5353 40.0121 55.5353C38.3915 55.5353 38.691 55.4259 34.6041 57.3643L33.4943 57.8802L21.5156 47.2502L9.53681 36.6202V26.1465V15.6728L9.94197 15.0475C10.171 14.7036 10.6466 14.2815 11.0342 14.0783L11.7388 13.7187H40.0121H68.2855L68.9901 14.0783C69.3777 14.2815 69.8533 14.7036 70.0823 15.0475C70.4346 15.5946 70.4875 15.8916 70.4875 17.5643C70.4875 19.237 70.5227 19.5027 70.8574 19.8779C71.3154 20.3937 72.249 20.4406 72.7951 19.956C73.1475 19.6434 73.1651 19.4871 73.0946 17.3454C73.0418 15.2038 73.0065 14.9849 72.5485 14.1564C71.9496 13.0622 70.7693 12.1086 69.501 11.6865C68.6026 11.3895 68.1269 11.3739 61.979 11.3739L55.426 11.3582L49.3485 6.09013C44.7684 2.10387 43.0597 0.728218 42.3903 0.446838C41.2452 -0.0377655 39.3604 -0.147194 38.2506 0.212349ZM41.1924 2.54158C41.5976 2.6979 43.5705 4.30804 46.6004 6.96554C49.2252 9.2635 51.4096 11.1863 51.4272 11.2488C51.4624 11.327 46.3186 11.3739 40.0121 11.3739C33.7057 11.3739 28.5619 11.327 28.5971 11.2488C28.7909 10.8424 38.2858 2.7448 38.779 2.55721C39.5717 2.24456 40.3997 2.24456 41.1924 2.54158ZM6.89444 32.1962V34.2753L5.71418 33.2279L4.51631 32.1649L5.66133 31.1488C6.27789 30.5861 6.82398 30.1327 6.84159 30.1327C6.87682 30.1327 6.89444 31.0707 6.89444 32.1962ZM74.3101 33.2123L73.1298 34.2753V32.1649V30.0546L74.3101 31.1176L75.508 32.1649L74.3101 33.2123ZM77.3224 63.1483L77.2696 72.9029L63.265 66.0716C55.5669 62.3041 49.19 59.1933 49.0843 59.1464C48.9962 59.0995 55.285 53.4562 63.0888 46.578L77.2696 34.0721L77.3224 43.7329C77.34 49.0479 77.34 57.7864 77.3224 63.1483Z" fill="#F27405"/>
<path id="Vector_2" d="M36.8408 20.7689C32.6483 21.7381 29.4598 24.2236 27.8039 27.7878C24.5098 34.8536 29.7417 42.8418 38.3558 43.8891C39.9236 44.0767 40.5754 43.9517 40.8748 43.4358C41.4562 42.4979 40.8044 41.7944 39.2189 41.6381C31.5561 40.8721 27.2402 33.9626 30.6224 27.8972C31.0805 27.0843 31.6442 26.4278 32.6835 25.5211C34.8678 23.5827 37.0346 22.7854 40.0997 22.7854C43.1649 22.7854 45.3316 23.5827 47.516 25.5211C50.0527 27.7565 50.9863 30.2421 50.3345 32.9621C49.7532 35.3539 48.8548 36.5576 47.4984 36.792C46.6176 36.9327 46.0363 36.7608 45.7368 36.2293C45.5254 35.8541 45.4726 34.9318 45.4726 30.6798C45.4726 25.8025 45.4549 25.5836 45.1202 25.2866C44.5918 24.8176 43.6581 24.8645 43.2001 25.3804C42.9887 25.6149 42.8302 25.9744 42.8302 26.1777C42.8302 26.3965 42.7773 26.5372 42.7069 26.5059C41.3505 25.8806 41.1038 25.8337 39.4832 25.8337C37.9682 25.8337 37.7216 25.8806 36.876 26.2871C34.128 27.6471 32.7011 30.5547 33.3705 33.478C33.7404 35.0725 34.3218 36.1355 35.3787 37.0734C37.1403 38.6679 39.5713 39.1056 41.6147 38.2146C42.1608 37.9801 42.7421 37.6518 42.9007 37.4955C43.2177 37.1985 43.2354 37.1985 43.7814 37.8238C44.0809 38.1833 44.6798 38.6367 45.1202 38.8555C45.8073 39.1682 46.0891 39.2151 47.1461 39.1525C50.035 38.9962 51.9199 37.2923 52.8712 33.9626C53.5582 31.6021 53.294 29.3041 52.0785 27.0843C50.3874 23.9422 47.1461 21.613 43.2882 20.7532C41.4209 20.3312 38.6552 20.3468 36.8408 20.7689ZM40.9101 28.3349C42.1608 28.9133 42.9359 30.6173 42.795 32.4619C42.5836 35.01 40.6282 36.792 38.6905 36.2293C36.5413 35.604 35.3259 32.9621 36.1186 30.5704C36.4004 29.7106 37.3869 28.6163 38.1444 28.3193C38.8842 28.0379 40.2583 28.0535 40.9101 28.3349Z" fill="#F27405"/>
</g>
</svg>
