<svg width="80" height="80" viewBox="0 0 80 80" fill="none" xmlns="http://www.w3.org/2000/svg">
<g id="Group">
<path id="Vector" d="M36.8593 0.112152C34.0517 0.472076 30.5144 1.50491 28.1986 2.64728C20.1723 6.63776 14.7158 14.4153 13.6689 23.3508C13.1454 27.9516 14.0971 33.2253 16.2385 37.4192C17.0316 38.9685 20.902 45.6193 21.251 45.9948C21.8379 46.6678 23.1861 46.12 23.1861 45.2124C23.1861 44.9464 22.2979 43.2563 20.8068 40.6899C19.4903 38.4364 18.1261 35.9013 17.7613 35.0719C13.3675 24.681 17.1427 12.5374 26.7234 6.21523C29.1027 4.65034 32.18 3.39843 35.3048 2.74117C37.6207 2.25606 42.3793 2.25606 44.6952 2.74117C47.0904 3.25758 48.5973 3.774 50.8656 4.88508C53.3876 6.12135 55.1325 7.40456 57.2104 9.51717C63.0953 15.5264 65.3794 23.8046 63.3332 31.7543C63.0794 32.7558 62.556 34.3051 62.1753 35.1971C61.4773 36.7933 41.3959 71.3305 40.7455 72.0503C40.5552 72.2538 40.2379 72.4103 40 72.4103C39.7621 72.4103 39.4448 72.2538 39.2545 72.0503C39.08 71.8625 35.9552 66.6045 32.3069 60.3606C28.6744 54.1166 25.5813 48.8899 25.4386 48.7334C25.1055 48.3578 24.2172 48.3891 23.8206 48.7804C23.6461 48.9525 23.5034 49.2968 23.5034 49.5472C23.5034 49.8601 25.0737 52.6769 28.4841 58.514L33.4648 67.0114L27.2944 67.0896C21.7268 67.1679 21.1082 67.1992 20.8544 67.4339C20.442 67.8408 20.5054 68.7797 20.9496 69.1396C21.2985 69.4213 21.711 69.437 28.1034 69.437H34.8924L36.0186 71.3774C36.6372 72.4416 37.351 73.5057 37.589 73.7404C39.1276 75.2897 41.6655 75.008 42.9028 73.1458C43.1883 72.6919 43.8228 71.6748 44.2828 70.8767L45.1235 69.437L58.7649 69.4683L72.4222 69.5152L74.8491 73.5683C76.1815 75.7904 77.276 77.637 77.276 77.6683C77.276 77.6996 60.5097 77.7309 40 77.7309C19.5061 77.7309 2.72399 77.6996 2.72399 77.6683C2.72399 77.637 3.81848 75.7904 5.1509 73.5683L7.5778 69.5152L12.3999 69.437C15.0647 69.39 17.2537 69.3274 17.2854 69.3118C17.5234 69.1396 17.7454 68.2163 17.6185 67.8877C17.3172 67.1053 17.2537 67.1053 12.1144 67.0896C6.89573 67.0896 6.67366 67.1209 5.86469 67.966C5.64262 68.2163 4.23089 70.4698 2.73985 72.9736C-0.369126 78.1847 -0.416713 78.3412 0.56674 79.421L1.10605 80H40H78.894L79.4333 79.421C80.4167 78.3412 80.3691 78.1847 77.2602 72.9736C74.6429 68.5763 74.0719 67.7312 73.3898 67.3557C73.1519 67.2148 69.4877 67.1522 59.8118 67.0896L46.5352 67.0114L54.7042 53.0838C59.1932 45.4158 63.2222 38.4521 63.6504 37.607C66.2677 32.5368 67.0767 26.5902 65.9346 21.0191C63.7932 10.5813 55.8304 2.64728 45.3297 0.487724C43.1566 0.0495529 38.9214 -0.138237 36.8593 0.112152Z" fill="#F27405"/>
<path id="Vector_2" d="M36.5892 6.30916C31.545 7.20115 27.056 9.93972 24.0422 13.9771C21.4567 17.4043 20.1719 21.2852 20.1719 25.62C20.1719 27.9204 20.4733 29.8139 21.1236 31.7543C23.4553 38.6242 29.2292 43.5693 36.5257 44.9464C38.2864 45.275 41.7127 45.275 43.4733 44.9464C49.4692 43.8197 54.4024 40.3456 57.3527 35.1971C58.4948 33.194 59.6686 29.7043 59.6686 28.2646C59.6686 26.7467 57.6224 26.5902 57.3686 28.0925C56.0837 35.557 50.5637 41.222 43.1878 42.6147C41.7444 42.8964 38.5244 42.9277 37.1126 42.6773C30.3078 41.488 24.9305 36.6525 23.0746 30.0486C22.6781 28.6402 22.6305 28.2803 22.6305 25.6982C22.6305 23.3039 22.6781 22.678 22.9795 21.5356C23.4395 19.7673 24.3595 17.6546 25.3271 16.2149C26.2629 14.8222 28.9278 12.1462 30.2443 11.3012C33.274 9.34505 36.3671 8.42177 39.9361 8.40612C44.8216 8.39047 49.1044 10.1744 52.5624 13.6329C54.9258 16.0115 56.4803 18.9535 57.21 22.4902C57.4796 23.789 57.8127 24.2116 58.5741 24.2116C58.8279 24.2116 59.1769 24.0707 59.3672 23.8829C59.6686 23.5856 59.7003 23.4291 59.621 22.5841C59.4782 21.1913 58.812 19.0318 57.9238 17.2165C55.1162 11.3951 49.7548 7.40459 43.2671 6.29351C41.5223 5.99618 38.3023 6.01183 36.5892 6.30916Z" fill="#F27405"/>
<path id="Vector_3" d="M29.9269 14.65C29.7525 14.7282 29.4352 14.9786 29.2131 15.2134L28.8166 15.6359L28.769 25.4791C28.7214 36.3081 28.7056 35.9952 29.689 36.4959C30.3869 36.8559 49.6119 36.8559 50.3098 36.4959C51.2932 35.9952 51.2774 36.3081 51.2298 25.4634L51.1822 15.6046L50.6588 15.1038L50.1512 14.5874L40.1897 14.5561C34.7173 14.5405 30.1014 14.5874 29.9269 14.65ZM36.3511 18.5779C36.3511 21.426 36.5097 21.5512 39.9994 21.5512C43.4891 21.5512 43.6477 21.426 43.6477 18.5779V16.8565H46.2649H48.8822V25.6199V34.3833H39.9994H31.1166V25.6199V16.8565H33.7339H36.3511V18.5779ZM41.2684 18.0302V19.2038H39.9994H38.7304V18.0302V16.8565H39.9994H41.2684V18.0302Z" fill="#F27405"/>
<path id="Vector_4" d="M35.1619 49.2342C34.3846 49.5628 34.1467 50.533 34.686 51.1277C34.9557 51.425 35.1619 51.4407 39.9998 51.4407C44.8378 51.4407 45.044 51.425 45.3136 51.1277C45.7102 50.6895 45.6785 49.9384 45.2502 49.5159C44.9171 49.1716 44.8219 49.1716 40.1902 49.1403C37.6046 49.1246 35.3364 49.1716 35.1619 49.2342Z" fill="#F27405"/>
<path id="Vector_5" d="M34.749 54.3827C34.2256 54.8052 34.2732 55.6033 34.8284 56.0884L35.2566 56.4484H39.9994C44.7422 56.4484 44.7422 56.4484 45.1705 56.0884C45.7098 55.619 45.7415 54.7896 45.218 54.3827C44.9167 54.1323 44.4249 54.101 39.9994 54.101C35.4946 54.101 35.0821 54.1167 34.749 54.3827Z" fill="#F27405"/>
</g>
</svg>
